<?xml version="1.0" encoding="UTF-8"?><svg id="Layer_1" xmlns="http://www.w3.org/2000/svg" viewBox="0 0 1939.2 1907.33"><path d="M0,948.47c5.44-50.28,7.59-100.59,17.01-149.51,12.16-63.13,27.47-125.96,46.35-187.41,19.06-62.07,48.47-120.51,86.87-173.01,36.76-50.26,76.11-98.85,117.1-145.75,54.02-61.8,119.3-110.92,188.04-155.28,68.47-44.18,142.22-76.75,221.11-97.37,34.38-8.99,69.03-16.95,103.43-25.86,23.48-6.08,44.74,4.31,67.04,7.31,9.86,1.32,20.38-2.36,30.6-3.73C924.8,11.57,971.98,1.09,1019.35.14c48.32-.97,97.71,3.11,145.03,12.79,60.85,12.45,121.43,29.12,179.63,50.7,46.82,17.36,91.11,42.73,134.43,68.11,66.85,39.15,127.7,87.01,184.49,139.69,47.33,43.91,89.75,92.51,123.47,147.58,28.49,46.54,57.96,93.44,78.49,143.66,23.37,57.19,38.12,118,55.01,177.7,9.29,32.85.77,63.28-20.09,90.31-1.26,1.64-1.33,5.94-.07,7.51,19.39,24.28,36.71,49.87,38.35,81.92,1.28,24.93,2.13,50.38-1.34,74.97-8.52,60.3-17.64,120.66-30.24,180.21-15.73,74.33-40.56,146.38-79.07,211.93-32.63,55.55-69,109.37-108.25,160.48-67.55,87.97-151.97,158.33-246.01,216.52-37.11,22.96-76.89,41.77-116.18,61-58.24,28.51-120.8,44.15-183.96,56.86-11.56,2.33-24.68-4.55-37.07-4.53-12.22.02-24.44,3.33-36.64,5.32-47.53,7.77-94.87,17.21-142.67,22.75-25.77,2.99-52.68,1.86-78.43-1.86-51.81-7.48-104.04-14.78-154.5-28.19-50.44-13.4-99.76-32.15-148.07-52.18-74.99-31.09-142.1-76.17-205.88-125.92-62.63-48.85-117.93-105.14-167.36-167.45-65.43-82.49-115.11-173.45-146.39-273.74-15.94-51.1-29.07-103.42-38.63-156.06-9.08-49.99-11.85-101.12-17.39-151.74ZM929.82,1805.69c27.51-2.14,55.15-3.21,82.51-6.62,69.58-8.67,133.28-33.4,191.41-72.66,34.77-23.48,64.04-52.23,90.54-84.93,31.87-39.33,57.62-81.7,74.44-129.09,23.08-65.04,31.87-132.5,26.59-201.33-1.68-21.87-7.32-43.45-11.36-65.13-1.32-7.08-4.76-9.04-12.17-5.79-14.92,6.54-30.39,11.81-45.46,18.03-1.71.71-3.63,4.44-3.21,6.25,11.2,48.55,8.03,97.29.44,145.69-9.86,62.88-32.6,120.75-71.33,172-34.39,45.51-76.71,81.47-126.82,108.4-70,37.62-146.12,48.71-224.07,49.07-29.23.14-59.04-2.76-87.59-8.89-48.64-10.45-97.04-22.83-144.51-37.7-35.43-11.1-69.45-26.91-103.67-41.59-17.77-7.62-34.68-17.26-51.83-26.28-1.69-.89-2.32-3.78-3.44-5.74,1.89.04,3.92-.36,5.66.18,41.75,12.9,84.57,20.15,128.15,18.94,35.76-.99,71.87-2.87,107.06-8.85,88.32-15.02,166.08-54.56,233.96-112.11,39.93-33.86,76.81-71.37,114.34-107.97,46.76-45.59,93.17-91.55,139.03-138.04,60.24-61.08,120.18-122.48,179.48-184.48,27.3-28.54,47.86-62.07,61.13-99.31,16.62-46.62,18.57-94.9,10.52-143.38-2.94-17.67-5.73-37.14-15.1-51.55-14.68-22.56-39.98-33.05-65.73-40.3-.53-.15-2.66,2.26-2.47,3.14,7.72,37.19,18.45,74.03,22.73,111.6,4.6,40.38-3.85,80.96-25.04,115.57-20.82,34.01-45.95,65.85-72.36,95.86-27.19,30.9-58.27,58.38-87.53,87.48-29.04,28.88-57.75,58.11-86.94,86.83-64.01,62.97-127.9,126.08-192.5,188.45-42.27,40.81-92.05,70.49-145.81,93.75-55.69,24.09-114.35,34.99-174.52,36.21-27.13.55-54.54-3.55-81.53-7.53-69.23-10.19-131.88-38.3-190.37-75.34-42.55-26.94-80.27-60.41-110.6-100.81-28.97-38.59-57.93-77.54-82.61-118.89-29.44-49.33-45.16-104.59-52.51-161.43-4.5-34.8-4.45-70.19-6.16-105.33-.15-3.12,1.8-6.34,2.78-9.51,1.65,2.98,3.83,5.78,4.88,8.96,13.34,40.21,23.65,81.71,40.35,120.46,30.47,70.73,73.65,133.97,133.18,183.38,34.52,28.65,71.99,55.34,111.84,75.64,74.1,37.73,154.08,55.14,237.72,46.56,34.61-3.55,69.54-9.02,102.9-18.59,73.21-21.01,135.99-61.24,191.12-113.42,34.26-32.42,68.13-65.25,102-98.07,29.6-28.68,59.37-57.21,88.33-86.53,40.85-41.37,82.47-82.12,121.08-125.51,42.57-47.85,62.92-105,61.4-169.86-1.04-44.37-11.88-85.22-39.6-120.06-7.11-8.94-19.27-16.29-30.4-18.92-11.57-2.74-24.71,1.02-37.14,2.21-1.96.19-3.79,1.78-5.67,2.72,1.18,2.01,2.06,4.28,3.58,5.97,4.14,4.61,9.54,8.38,12.7,13.55,28.22,46.14,35.97,96.08,25.76,148.83-10.02,51.76-40.63,91.36-76.88,127.4-32.99,32.8-66.03,65.54-99.16,98.18-32.82,32.34-65.53,64.8-98.77,96.71-29.62,28.42-59.05,57.14-90.07,83.98-49.17,42.55-104.9,73.64-168.6,89.09-55.88,13.55-112.55,15.3-168.68,4.62-86.94-16.54-161.49-57.06-221.35-123.15-38.5-42.51-69.23-90.02-91.67-142.79-29.5-69.37-43.53-142.02-45.75-217.19-1.76-59.77,7.17-118.14,22.59-175.64,5.49-20.46,12.06-40.64,18.47-60.84.75-2.37,3.61-4.07,5.5-6.08,1.06,2.48,3.15,5.01,3,7.42-.98,16.46-3.87,32.92-3.43,49.31,1.02,38.04,1.79,76.24,5.92,114.02,7.29,66.81,29.14,129.46,60.36,188.87,39.58,75.33,90.57,141.3,156.52,195.79,54.74,45.23,114.94,80.59,182.68,101.1,35.32,10.69,72.47,15.97,109.13,21.36,14.54,2.14,32.19,2.13,44.56-4.3,20.17-10.5,37.2-27.05,55.47-41.16,1.06-.82,1.35-2.64,2-3.99-1.44-.46-2.86-1.23-4.33-1.34-22.69-1.68-45.46-2.58-68.06-5.02-57.56-6.22-111.74-24.6-163.93-48.74-77.71-35.94-140-91.41-193.36-157.27-41.63-51.38-71.3-109.56-92.52-172.03-15.74-46.34-26.04-94.08-26.27-143-.16-34.15,2.56-68.63,7.65-102.41,10.27-68.2,36.15-130.94,73-189.14,36.16-57.12,80.33-107.51,130.53-152.56,19.56-17.55,40.69-33.34,61.22-49.8,1.37-1.1,3.71-1,5.6-1.46-.08,1.99.56,4.43-.36,5.89-5.55,8.83-11.23,17.58-17.27,26.08-34.69,48.81-72.95,94.87-96.21,151.5-26.28,64-41.53,129.65-41.78,198.53-.11,30.07,2.81,60.23,5.64,90.23,4.73,50.19,25.96,95.41,44.56,141.34.58,1.43,2.74,3.14,4.07,3.07,1.27-.07,2.71-2.13,3.6-3.6,9.75-15.98,18.63-32.56,29.36-47.84,6.8-9.69,13.03-17.29,1.21-27.46-3.48-3-6.23-8.16-7.06-12.74-8.12-44.63-18.46-89.09-22.62-134.11-3.02-32.63-1.26-66.71,4.84-98.92,7.91-41.78,18.6-83.83,34.66-123.08,25.34-61.95,66.29-114.44,115.45-159.85,21.29-19.67,43.44-39.03,67.66-54.73,31.35-20.32,65.19-36.78,97.82-55.16,2.25-1.27,5.15-5.66,4.5-6.91-1.53-2.93-4.82-6.44-7.76-6.81-6.11-.76-12.66-.52-18.68.85-81.76,18.61-161.81,41.98-235.31,83.89-61.09,34.83-117.95,75.47-168.03,124.84-29.9,29.48-58.35,60.52-86.23,91.95-35.38,39.89-64.98,84.03-89.79,131.23-46.18,87.88-77.32,180.78-86.93,279.78-5.12,52.79-7.74,106.04-7.48,159.06.18,37.49,5.54,75.18,11.33,112.35,11.63,74.76,36.73,145.62,67.85,214.27,43.26,95.45,106.36,176.48,181.73,248.78,40.43,38.78,83.82,73.43,130.58,104.02,66.14,43.26,136.34,78.5,211.59,102.72,71.38,22.98,144.52,36.81,220.1,36.73ZM1176.29,1775.28c.25.65.5,1.29.75,1.94,3.55-.6,7.16-.97,10.65-1.82,70.84-17.37,138.41-43.32,202.12-78.81,62.93-35.06,121.1-77,172.65-127.33,28.15-27.48,54.74-56.76,80.11-86.85,39.34-46.66,75.86-95.93,100.85-151.76,23.06-51.53,44.42-104.3,60.48-158.33,14.08-47.34,20.39-97.07,28.84-145.97,3.47-20.11,3.58-40.8,5.14-61.23,1.82-23.77-.12-46.07-16.47-65.94-9.09-11.04-16.48-24.52-20.88-38.11-5.23-16.14-3.91-34.55-9.86-50.3-15.82-41.87-32.62-83.49-51.67-123.98-19.66-41.78-48.24-78-79.9-111.48-42.55-45-91.05-82.07-148.03-107.28-50.11-22.17-102.61-35.22-157.28-36.83-28.44-.84-57.16,1.53-85.5,4.68-60.72,6.76-117.61,26.45-166.6,62.87-39.7,29.52-76.7,62.9-113.26,96.35-33.7,30.83-65.26,63.99-97.69,96.2-21.59,21.44-43.36,42.72-64.5,64.6-43.83,45.36-88.82,89.72-130.49,137.01-42.46,48.18-60.72,107.42-64.71,170.78-2.24,35.54,3.28,70.54,17.82,103.31,4.84,10.91,11.1,24.31,20.56,29.34,15.25,8.11,33.67,10.29,50.81,14.78,2.35.62,5.01.06,7.53.05-1-2.39-1.73-4.94-3.03-7.14-18.39-31.09-24.46-65.56-26.88-100.79-3.13-45.67,6.96-88.79,27.78-129.39,18.76-36.57,47.5-65.14,76.2-93.69,74.5-74.12,148.52-148.73,223.63-222.22,30.19-29.54,60.9-59.09,94.57-84.4,81.26-61.1,173.3-84.36,274.15-67.89,81.67,13.34,149.24,53.22,206.18,112.54,43.58,45.4,76.57,97.65,102.49,154.62,34.3,75.37,51.07,154.68,52.48,237.33.32,18.83.79,37.7-.18,56.48-.78,15.17-3.56,30.25-5.7,45.33-.17,1.17-2.22,2.07-3.39,3.1-.82-1.32-2.23-2.58-2.36-3.97-3.03-31.82-4.91-63.78-9.06-95.44-6.32-48.2-19.93-94.58-39.73-139.02-30.08-67.52-73.1-125.6-127.48-175.59-35.11-32.28-73.71-59.52-116.57-80.04-64.71-30.98-132.9-44.83-205.05-38.9-30.71,2.52-59.37,10.18-86.71,23.79-23.8,11.85-24.55,20.92-15.21,39.77,1.04,2.09,5.55,3.73,8.3,3.52,30.32-2.29,60.67-7.59,90.88-6.84,31.18.78,62.83,4.71,93.18,11.88,83.56,19.73,152.67,64.63,210.71,127.39,33.37,36.08,60.37,76.22,81.26,120.75,35.24,75.14,50.12,154.25,44.05,236.64-2.93,39.83-9.02,79.73-17.46,118.78-15.46,71.49-44.29,138.27-83.05,200.06-23.34,37.21-49.19,73.36-77.85,106.59-26.3,30.49-57.86,56.45-87.22,84.28-1.28,1.22-3.75,1.18-5.67,1.73-.03-1.88-.71-4.06,0-5.59,6.52-13.9,12.25-28.3,20.17-41.36,17.66-29.13,39.21-56.22,54.04-86.65,16.88-34.65,30.59-71.32,41.33-108.38,16.3-56.25,20.39-114.46,13.74-172.67-3.71-32.51-11.4-64.61-18.51-96.62-1.09-4.9-9.78-12.53-13.26-11.71-14.69,3.46-28.81,9.44-42.9,15.09-1.72.69-3.39,5.34-2.77,7.49,18.69,64.98,23.75,131.06,17.88,198.32-4.46,51.01-15.74,100.24-34.1,148-24.19,62.95-59.09,119.06-106.15,167.42-38.79,39.86-82.35,73.42-132.28,98.4-7.6,3.8-14.64,8.71-21.94,13.11ZM1773.2,604.39c-.3-1.18-.4-2.46-.93-3.53-15.8-31.38-29.93-63.74-47.81-93.88-38.98-65.69-85.81-125.54-144.54-174.89-38.65-32.48-77.67-64.89-119.18-93.48-64.57-44.47-134.53-79.03-209.45-103.42-75.4-24.55-152.6-36.21-231.64-35.59-24.1.19-48.3,2.67-72.24,5.75-48.14,6.18-94.86,17.76-138.69,39.57-45.03,22.41-85.81,50.66-122.06,85.57-46.75,45.03-78.08,99.92-98.24,160.65-21.8,65.69-29.9,133.96-23.26,203,3.56,37,11.77,73.56,18.43,110.21.24,1.32,7.83,3.38,9.51,2.02,9.36-7.57,18.74-15.41,26.58-24.48,8.44-9.78,23.67-15.16,20.15-33.33-4.19-21.69-7.45-43.72-8.86-65.75-2.8-43.57,2.05-86.7,12.45-129.06,19.84-80.83,60.54-148.91,125.56-201.56,67.78-54.88,147.21-79.43,232.74-84.32,35.6-2.04,71.66,1.73,107.39,4.45,56.15,4.28,109.7,20.03,162.11,39.9,1.77.67,3.74,4.41,3.44,6.4-2.07,14.04-12.54,9.19-21.08,9.06-47.22-.73-94.5-2.98-141.65-1.45-34.63,1.12-69.4,5.48-103.57,11.45-82.8,14.46-154.16,52.51-215.19,110-35.8,33.73-62.77,73.73-82.64,118.68-19.52,44.17-32.55,89.54-27.18,138.55.17,1.56,1.25,3.02,1.91,4.53,1.42-.64,3.18-.93,4.19-1.96,11.13-11.26,20.88-24.36,33.48-33.57,19.47-14.23,28-33.87,35.14-55.45,21.05-63.6,60.9-114.1,113.33-154.3,43.62-33.44,93.5-55.56,146.04-71.49,14.69-4.46,29.48-8.7,44.44-12.08,3.09-.7,7.14,2.84,10.75,4.43-1.4,2.34-2.24,5.61-4.3,6.86-13.7,8.34-27.98,15.74-41.49,24.37-63.54,40.58-116.39,93.66-169.59,146.25-29.68,29.34-58.74,59.32-88.12,88.96-42.67,43.04-85.52,85.91-128.03,129.11-29.95,30.44-59.72,61.05-89.09,92.04-34.35,36.25-60.39,77.51-75.98,125.41-12.67,38.93-17.13,78.56-10.93,118.69,3.16,20.5,6.45,44.17,18.53,59.36,17.87,22.46,43.61,38.68,66.07,57.46,1.17.98,3.06,1.08,4.61,1.59-.27-1.45-.25-3.03-.84-4.34-21.8-48.53-31.66-99.21-26.69-152.34,3.43-36.66,11.84-72.74,33.51-102.6,23.26-32.06,50.04-61.74,76.88-90.98,25.22-27.47,52.44-53.11,78.95-79.39,60.91-60.38,121.92-120.66,182.89-180.98,28.41-28.11,56.25-56.83,85.47-84.08,19.7-18.37,40.65-35.61,62.28-51.69,72.51-53.93,154.77-81.45,244.64-83.8,36.16-.94,72.82,2.4,108.67,7.7,56.52,8.35,109.03,29.64,157.46,59.82,48.54,30.24,90.88,68.01,128.66,110.97,32.9,37.41,64.39,75.75,87,121.01ZM798.6,1087.87c.55,7.65,1.47,19.09,2.19,30.55,1.48,23.54,8.53,30.42,31.42,30.59,5.01.04,10.02.66,15.03.6,2.04-.03,4.66-.57,6.02-1.89,83.84-82.37,167.51-164.91,251.35-247.29,27.81-27.33,48.99-56.99,46.35-99.1-1.7-27.15-9.88-46.89-40.31-52.67-6.51-1.24-12.34-5.79-18.73-8.18-2.18-.82-6.1-.73-7.51.67-49.25,48.74-98.33,97.65-147.35,146.62-30.92,30.89-61.84,61.77-92.51,92.9-28.19,28.63-46.49,61.8-45.94,107.2ZM892.47,1689.41c.17,1.34.34,2.68.51,4.02,23.99-3.93,48.24-6.72,71.93-12.01,65.4-14.62,121.96-46.65,171.54-91.13,40.74-36.55,73.42-79.47,94.48-130.13,8.81-21.18,13.41-44.1,19.82-66.26.3-1.04-.38-2.37-.6-3.56-1.11.46-2.34.75-3.32,1.4-17.66,11.84-35.59,23.3-52.8,35.75-10.46,7.57-21.59,15.31-29.31,25.36-18.62,24.24-33.2,51.86-53.44,74.52-36.13,40.45-81.09,69.93-131.03,91.12-40.15,17.04-81.11,31.73-125.62,32.31-1.75.02-4.41,2.09-5.04,3.79-3.45,9.33-6.69,18.77-9.21,28.37-.43,1.63,2.95,6.1,4.66,6.15,15.8.48,31.62.29,47.43.29Z" style="fill:#4a57c4; stroke-width:0px;"/></svg>